<?xml version="1.0" encoding="UTF-8"?>
<svg xmlns="http://www.w3.org/2000/svg" xmlns:xlink="http://www.w3.org/1999/xlink" viewBox="0 0 956.24 501.71">
  <defs>
    <style>
      .cls-1, .cls-2, .cls-3 {
        fill: #fff;
      }

      .cls-1, .cls-3 {
        font-family: BebasNeueBold, BebasNeueBold;
        font-size: 28.17px;
      }

      .cls-4 {
        fill: url(#linear-gradient-2);
      }

      .cls-5 {
        fill: url(#linear-gradient-51);
      }

      .cls-6 {
        letter-spacing: .06em;
      }

      .cls-7 {
        letter-spacing: .08em;
      }

      .cls-8 {
        fill: url(#linear-gradient-12);
      }

      .cls-8, .cls-9 {
        fill-rule: evenodd;
      }

      .cls-10 {
        letter-spacing: .1em;
      }

      .cls-11 {
        fill: url(#linear-gradient-17);
      }

      .cls-12 {
        fill: url(#linear-gradient-43);
      }

      .cls-13 {
        letter-spacing: .1em;
      }

      .cls-13, .cls-14 {
        fill: #231f20;
        font-family: Montserrat-ExtraBold, 'Montserrat ExtraBold';
        font-size: 24.67px;
        font-weight: 700;
      }

      .cls-15 {
        letter-spacing: .4em;
      }

      .cls-16 {
        fill: url(#linear-gradient-15);
      }

      .cls-17 {
        fill: url(#linear-gradient-58);
      }

      .cls-18 {
        fill: url(#linear-gradient-18);
      }

      .cls-19 {
        fill: url(#linear-gradient-56);
      }

      .cls-20 {
        letter-spacing: .02em;
      }

      .cls-21 {
        fill: url(#linear-gradient-40);
      }

      .cls-22 {
        fill: url(#linear-gradient-52);
      }

      .cls-23 {
        fill: url(#linear-gradient-28);
      }

      .cls-24 {
        fill: url(#linear-gradient-14);
      }

      .cls-25 {
        fill: url(#linear-gradient-36);
      }

      .cls-26 {
        fill: url(#linear-gradient-20);
      }

      .cls-27 {
        fill: url(#linear-gradient-6);
      }

      .cls-28 {
        fill: url(#linear-gradient-53);
      }

      .cls-29 {
        letter-spacing: .4em;
      }

      .cls-30 {
        fill: url(#linear-gradient-60);
      }

      .cls-31 {
        fill: #180f43;
      }

      .cls-32 {
        fill: url(#linear-gradient-35);
      }

      .cls-33 {
        fill: url(#linear-gradient-48);
      }

      .cls-34 {
        fill: url(#linear-gradient-32);
      }

      .cls-35 {
        letter-spacing: .1em;
      }

      .cls-36 {
        fill: url(#linear-gradient-11);
      }

      .cls-37 {
        fill: url(#linear-gradient-50);
      }

      .cls-38 {
        fill: url(#linear-gradient-39);
      }

      .cls-39 {
        letter-spacing: .4em;
      }

      .cls-40 {
        fill: url(#linear-gradient-10);
      }

      .cls-41 {
        fill: url(#linear-gradient-59);
      }

      .cls-42, .cls-3 {
        letter-spacing: .1em;
      }

      .cls-43 {
        letter-spacing: .02em;
      }

      .cls-44 {
        letter-spacing: .39em;
      }

      .cls-45 {
        fill: url(#radial-gradient);
      }

      .cls-46 {
        fill: url(#linear-gradient-49);
      }

      .cls-47 {
        fill: url(#linear-gradient-37);
      }

      .cls-48 {
        fill: url(#linear-gradient-16);
      }

      .cls-49 {
        fill: url(#linear-gradient-31);
      }

      .cls-9 {
        fill: url(#linear-gradient-41);
      }

      .cls-50 {
        fill: url(#linear-gradient-21);
      }

      .cls-51 {
        stroke: #fff;
        stroke-miterlimit: 10;
      }

      .cls-52 {
        fill: url(#linear-gradient-25);
      }

      .cls-53 {
        fill: url(#linear-gradient-5);
      }

      .cls-54 {
        fill: url(#linear-gradient-54);
      }

      .cls-55 {
        fill: url(#linear-gradient-45);
      }

      .cls-56 {
        fill: url(#linear-gradient-55);
      }

      .cls-57 {
        fill: url(#radial-gradient-2);
      }

      .cls-58 {
        fill: url(#linear-gradient-34);
      }

      .cls-59 {
        letter-spacing: .09em;
      }

      .cls-60 {
        fill: url(#linear-gradient-7);
      }

      .cls-61 {
        fill: #6d6e71;
      }

      .cls-61, .cls-2 {
        font-family: OpenSans, OpenSans;
        font-size: 9px;
      }

      .cls-62 {
        letter-spacing: .33em;
      }

      .cls-63 {
        fill: url(#linear-gradient-24);
      }

      .cls-64 {
        letter-spacing: .1em;
      }

      .cls-65 {
        fill: url(#linear-gradient-9);
      }

      .cls-66 {
        fill: url(#linear-gradient-22);
      }

      .cls-67 {
        fill: url(#linear-gradient-42);
      }

      .cls-68 {
        letter-spacing: .1em;
      }

      .cls-69 {
        fill: url(#linear-gradient-3);
      }

      .cls-70 {
        letter-spacing: .4em;
      }

      .cls-71 {
        fill: url(#linear-gradient);
      }

      .cls-72 {
        fill: url(#linear-gradient-27);
      }

      .cls-73 {
        fill: url(#linear-gradient-33);
      }

      .cls-74 {
        fill: url(#linear-gradient-38);
      }

      .cls-75 {
        fill: url(#linear-gradient-29);
      }

      .cls-76 {
        fill: url(#linear-gradient-30);
      }

      .cls-77 {
        fill: url(#linear-gradient-23);
      }

      .cls-78 {
        fill: url(#linear-gradient-19);
      }

      .cls-79 {
        fill: url(#linear-gradient-4);
      }

      .cls-80 {
        fill: url(#linear-gradient-8);
      }

      .cls-81 {
        fill: url(#linear-gradient-44);
      }

      .cls-82 {
        fill: url(#linear-gradient-57);
      }

      .cls-83 {
        fill: url(#linear-gradient-47);
      }

      .cls-84 {
        fill: url(#linear-gradient-46);
      }

      .cls-85 {
        fill: url(#linear-gradient-13);
      }

      .cls-86 {
        fill: url(#linear-gradient-26);
      }
    </style>
    <radialGradient id="radial-gradient" cx="132.32" cy="436.75" fx="132.32" fy="436.75" r="248.57" gradientTransform="translate(292.3 81.25) scale(.62 .68)" gradientUnits="userSpaceOnUse">
      <stop offset="0" stop-color="#fff" stop-opacity="0"/>
      <stop offset=".13" stop-color="#fefefe" stop-opacity=".02"/>
      <stop offset=".26" stop-color="#fdfdfd" stop-opacity=".07"/>
      <stop offset=".39" stop-color="#fafbfb" stop-opacity=".16"/>
      <stop offset=".53" stop-color="#f7f8f8" stop-opacity=".29"/>
      <stop offset=".66" stop-color="#f3f4f4" stop-opacity=".45"/>
      <stop offset=".8" stop-color="#eeeff0" stop-opacity=".65"/>
      <stop offset=".94" stop-color="#e9e9ea" stop-opacity=".88"/>
      <stop offset="1" stop-color="#e6e7e8"/>
    </radialGradient>
    <radialGradient id="radial-gradient-2" cx="-267.68" cy="67.2" fx="-267.68" fy="67.2" r="269.1" gradientTransform="translate(292.3 81.25) scale(.62 .68)" gradientUnits="userSpaceOnUse">
      <stop offset="0" stop-color="#fff" stop-opacity="0"/>
      <stop offset=".1" stop-color="#fefefe" stop-opacity=".03"/>
      <stop offset=".23" stop-color="#fcfcfc" stop-opacity=".1"/>
      <stop offset=".38" stop-color="#f9f9f9" stop-opacity=".22"/>
      <stop offset=".55" stop-color="#f5f5f6" stop-opacity=".39"/>
      <stop offset=".73" stop-color="#eff0f1" stop-opacity=".61"/>
      <stop offset=".91" stop-color="#e9eaeb" stop-opacity=".87"/>
      <stop offset="1" stop-color="#e6e7e8"/>
    </radialGradient>
    <linearGradient id="linear-gradient" x1="71.31" y1="359.02" x2="172.79" y2="359.02" gradientUnits="userSpaceOnUse">
      <stop offset="0" stop-color="#2154c4"/>
      <stop offset=".49" stop-color="#16a8d1"/>
      <stop offset="1" stop-color="#22e2a7"/>
    </linearGradient>
    <linearGradient id="linear-gradient-2" x1="71.3" y1="358.86" x2="172.8" y2="358.86" xlink:href="#linear-gradient"/>
    <linearGradient id="linear-gradient-3" x1="71.32" y1="362.71" x2="172.8" y2="362.71" xlink:href="#linear-gradient"/>
    <linearGradient id="linear-gradient-4" x1="71.29" y1="358.86" x2="172.81" y2="358.86" xlink:href="#linear-gradient"/>
    <linearGradient id="linear-gradient-5" x1="71.31" y1="358.86" x2="172.78" y2="358.86" xlink:href="#linear-gradient"/>
    <linearGradient id="linear-gradient-6" x1="71.32" y1="358.86" x2="172.8" y2="358.86" xlink:href="#linear-gradient"/>
    <linearGradient id="linear-gradient-7" x1="71.3" y1="358.86" x2="172.81" y2="358.86" xlink:href="#linear-gradient"/>
    <linearGradient id="linear-gradient-8" x1="71.29" y1="358.86" x2="172.81" y2="358.86" xlink:href="#linear-gradient"/>
    <linearGradient id="linear-gradient-9" x1="71.29" y1="359.71" x2="172.83" y2="359.71" xlink:href="#linear-gradient"/>
    <linearGradient id="linear-gradient-10" x1="71.27" y1="359.71" x2="172.81" y2="359.71" xlink:href="#linear-gradient"/>
    <linearGradient id="linear-gradient-11" x1="72.47" y1="337.95" x2="171.69" y2="337.95" xlink:href="#linear-gradient"/>
    <linearGradient id="linear-gradient-12" x1="321.33" y1="109.03" x2="430.81" y2="109.03" gradientUnits="userSpaceOnUse">
      <stop offset="0" stop-color="#fc1b7c"/>
      <stop offset=".49" stop-color="#714cf4"/>
      <stop offset="1" stop-color="#0084f3"/>
    </linearGradient>
    <linearGradient id="linear-gradient-13" y1="116.49" y2="116.49" xlink:href="#linear-gradient-12"/>
    <linearGradient id="linear-gradient-14" y1="123.94" y2="123.94" xlink:href="#linear-gradient-12"/>
    <linearGradient id="linear-gradient-15" y1="131.39" y2="131.39" xlink:href="#linear-gradient-12"/>
    <linearGradient id="linear-gradient-16" x1="321.34" y1="116.49" x2="430.8" y2="116.49" xlink:href="#linear-gradient-12"/>
    <linearGradient id="linear-gradient-17" x1="321.34" y1="123.94" x2="430.8" y2="123.94" xlink:href="#linear-gradient-12"/>
    <linearGradient id="linear-gradient-18" x1="321.34" y1="131.39" x2="430.8" y2="131.39" xlink:href="#linear-gradient-12"/>
    <linearGradient id="linear-gradient-19" x1="321.33" y1="94.13" x2="430.8" y2="94.13" xlink:href="#linear-gradient-12"/>
    <linearGradient id="linear-gradient-20" x1="321.33" y1="101.58" x2="430.8" y2="101.58" xlink:href="#linear-gradient-12"/>
    <linearGradient id="linear-gradient-21" x1="321.33" x2="430.8" xlink:href="#linear-gradient-12"/>
    <linearGradient id="linear-gradient-22" x1="321.33" y1="116.49" x2="430.8" y2="116.49" xlink:href="#linear-gradient-12"/>
    <linearGradient id="linear-gradient-23" x1="321.33" y1="123.94" x2="430.8" y2="123.94" xlink:href="#linear-gradient-12"/>
    <linearGradient id="linear-gradient-24" x1="321.33" y1="131.39" x2="430.8" y2="131.39" xlink:href="#linear-gradient-12"/>
    <linearGradient id="linear-gradient-25" x1="321.33" y1="123.94" x2="430.81" y2="123.94" xlink:href="#linear-gradient-12"/>
    <linearGradient id="linear-gradient-26" x1="321.33" y1="131.39" x2="430.81" y2="131.39" xlink:href="#linear-gradient-12"/>
    <linearGradient id="linear-gradient-27" x1="321.33" x2="430.81" xlink:href="#linear-gradient-12"/>
    <linearGradient id="linear-gradient-28" x1="321.33" y1="116.49" x2="430.81" y2="116.49" xlink:href="#linear-gradient-12"/>
    <linearGradient id="linear-gradient-29" x1="321.33" y1="123.94" x2="430.81" y2="123.94" xlink:href="#linear-gradient-12"/>
    <linearGradient id="linear-gradient-30" x1="321.33" y1="131.39" x2="430.81" y2="131.39" xlink:href="#linear-gradient-12"/>
    <linearGradient id="linear-gradient-31" x1="321.33" y1="98.48" x2="430.8" y2="98.48" xlink:href="#linear-gradient-12"/>
    <linearGradient id="linear-gradient-32" x1="317.16" y1="352.59" x2="388.11" y2="352.59" gradientUnits="userSpaceOnUse">
      <stop offset="0" stop-color="#18eff2"/>
      <stop offset=".5" stop-color="#109ef5"/>
      <stop offset="1" stop-color="#144ccb"/>
    </linearGradient>
    <linearGradient id="linear-gradient-33" x1="317.16" y1="329.29" x2="388.11" y2="329.29" xlink:href="#linear-gradient-32"/>
    <linearGradient id="linear-gradient-34" x1="444.24" y1="166.52" x2="524.74" y2="166.52" gradientTransform="translate(.33 549.71) rotate(-44.96) scale(.9)" xlink:href="#linear-gradient-32"/>
    <linearGradient id="linear-gradient-35" x1="442.69" y1="164.47" x2="523.65" y2="164.47" gradientTransform="translate(.33 549.71) rotate(-44.96) scale(.9)" xlink:href="#linear-gradient-32"/>
    <linearGradient id="linear-gradient-36" x1="445.85" y1="176.68" x2="526.93" y2="176.68" gradientTransform="translate(.33 549.71) rotate(-44.96) scale(.9)" xlink:href="#linear-gradient-32"/>
    <linearGradient id="linear-gradient-37" x1="447.23" y1="185.09" x2="529.36" y2="185.09" gradientTransform="translate(.33 549.71) rotate(-44.96) scale(.9)" xlink:href="#linear-gradient-32"/>
    <linearGradient id="linear-gradient-38" x1="52.28" y1="110.7" x2="197.25" y2="110.7" gradientUnits="userSpaceOnUse">
      <stop offset="0" stop-color="#f23514"/>
      <stop offset=".49" stop-color="#f87458"/>
      <stop offset="1" stop-color="#f6e813"/>
    </linearGradient>
    <linearGradient id="linear-gradient-39" x1="52.28" y1="110.7" x2="197.25" y2="110.7" xlink:href="#linear-gradient-38"/>
    <linearGradient id="linear-gradient-40" x1="52.28" y1="98.28" x2="197.25" y2="98.28" xlink:href="#linear-gradient-38"/>
    <linearGradient id="linear-gradient-41" x1="544.71" y1="95.84" x2="654.18" y2="95.84" xlink:href="#linear-gradient-12"/>
    <linearGradient id="linear-gradient-42" x1="544.71" y1="103.29" x2="654.18" y2="103.29" xlink:href="#linear-gradient-12"/>
    <linearGradient id="linear-gradient-43" x1="544.71" y1="110.75" x2="654.18" y2="110.75" xlink:href="#linear-gradient-12"/>
    <linearGradient id="linear-gradient-44" x1="544.71" y1="118.2" x2="654.18" y2="118.2" xlink:href="#linear-gradient-12"/>
    <linearGradient id="linear-gradient-45" x1="544.71" y1="103.29" x2="654.17" y2="103.29" xlink:href="#linear-gradient-12"/>
    <linearGradient id="linear-gradient-46" x1="544.71" y1="110.75" x2="654.17" y2="110.75" xlink:href="#linear-gradient-12"/>
    <linearGradient id="linear-gradient-47" x1="544.71" y1="118.2" x2="654.17" y2="118.2" xlink:href="#linear-gradient-12"/>
    <linearGradient id="linear-gradient-48" x1="544.71" y1="80.94" x2="654.18" y2="80.94" xlink:href="#linear-gradient-12"/>
    <linearGradient id="linear-gradient-49" x1="544.71" y1="88.39" x2="654.18" y2="88.39" xlink:href="#linear-gradient-12"/>
    <linearGradient id="linear-gradient-50" x1="544.71" y1="95.84" x2="654.18" y2="95.84" xlink:href="#linear-gradient-12"/>
    <linearGradient id="linear-gradient-51" x1="544.71" y1="103.29" x2="654.18" y2="103.29" xlink:href="#linear-gradient-12"/>
    <linearGradient id="linear-gradient-52" x1="544.71" y1="110.75" x2="654.18" y2="110.75" xlink:href="#linear-gradient-12"/>
    <linearGradient id="linear-gradient-53" x1="544.71" y1="118.2" x2="654.18" y2="118.2" xlink:href="#linear-gradient-12"/>
    <linearGradient id="linear-gradient-54" x1="544.71" y1="110.75" x2="654.18" y2="110.75" xlink:href="#linear-gradient-12"/>
    <linearGradient id="linear-gradient-55" x1="544.71" y1="118.2" x2="654.18" y2="118.2" xlink:href="#linear-gradient-12"/>
    <linearGradient id="linear-gradient-56" x1="544.71" y1="95.84" x2="654.18" y2="95.84" xlink:href="#linear-gradient-12"/>
    <linearGradient id="linear-gradient-57" x1="544.71" y1="103.29" x2="654.18" y2="103.29" xlink:href="#linear-gradient-12"/>
    <linearGradient id="linear-gradient-58" x1="544.71" y1="110.75" x2="654.18" y2="110.75" xlink:href="#linear-gradient-12"/>
    <linearGradient id="linear-gradient-59" x1="544.71" y1="118.2" x2="654.18" y2="118.2" xlink:href="#linear-gradient-12"/>
    <linearGradient id="linear-gradient-60" x1="544.71" y1="85.29" x2="654.18" y2="85.29" xlink:href="#linear-gradient-12"/>
  </defs>
  <g id="BACKGROUND">
    <g>
      <rect class="cls-31" y="251.71" width="250" height="250"/>
      <rect class="cls-45" x="250" y="251.71" width="250" height="250"/>
      <rect class="cls-57" y="1.71" width="250" height="250"/>
      <rect class="cls-31" x="250" y="1.71" width="250" height="250"/>
    </g>
  </g>
  <g id="OBJECTS">
    <rect class="cls-51" x="518.57" y=".5" width="437.17" height="219.68"/>
    <g>
      <g>
        <g>
          <rect class="cls-71" x="118.14" y="322.37" width="3.37" height="73.3"/>
          <rect class="cls-4" x="111.11" y="334.84" width="3.37" height="48.03"/>
          <rect class="cls-69" x="132.19" y="342.55" width="3.37" height="40.33"/>
          <rect class="cls-79" x="125.16" y="346.99" width="3.37" height="23.73"/>
          <rect class="cls-53" x="104.09" y="349.43" width="3.37" height="18.87"/>
          <rect class="cls-27" x="139.21" y="349.43" width="3.37" height="18.87"/>
          <rect class="cls-60" x="97.06" y="353.29" width="3.37" height="11.15"/>
          <rect class="cls-80" x="146.24" y="353.29" width="3.37" height="11.15"/>
          <rect class="cls-65" x="90.04" y="357.72" width="3.37" height="3.98"/>
          <rect class="cls-40" x="153.27" y="357.72" width="3.37" height="3.98"/>
        </g>
        <path class="cls-36" d="m169.33,337.31h-.1c.54,2.52.73,4.7.73,4.7h-1.65c-2.21-22.17-21.05-39.64-43.78-39.64h-2.41c-22.26,0-40.79,16.76-43.61,38.29-.02.14-.03.29-.05.43-.04.29-.08.59-.11.88,0,.01,0,.02,0,.04h-2.1s.19-2.17.73-4.68c-4.04.19-6.08,3.54-6.08,7.62v22.14c0,4.2,2.23,6.44,6.44,6.44h.2c4.2,0,7.64-2.23,7.64-6.44v-19.87c0-21.01,17.17-38.2,38.16-38.2s38.16,17.19,38.16,38.2v19.87c0,4.2,3.44,6.44,7.64,6.44h.2c4.2,0,6.44-2.23,6.44-6.44v-22.14c0-4.2-2.23-7.64-6.44-7.64Z"/>
      </g>
      <g>
        <text class="cls-2" transform="translate(79.03 448.18) scale(.9 1)"><tspan class="cls-62" x="0" y="0">T</tspan><tspan class="cls-44" x="7.4" y="0">A</tspan><tspan class="cls-15" x="16.37" y="0">GLINE HERE</tspan></text>
        <text class="cls-1" transform="translate(26.88 431.13) scale(1.15 1)"><tspan class="cls-64" x="0" y="0">MUSIC BE</tspan><tspan class="cls-43" x="135.49" y="0">A</tspan><tspan class="cls-42" x="153.38" y="0">T</tspan></text>
      </g>
    </g>
    <g>
      <g>
        <g>
          <g>
            <polyline class="cls-8" points="389.76 111.52 389.76 106.55 397.6 106.55 397.6 111.52"/>
            <rect class="cls-85" x="389.76" y="114" width="7.84" height="4.97"/>
            <rect class="cls-24" x="389.76" y="121.45" width="7.84" height="4.97"/>
            <rect class="cls-16" x="389.76" y="128.91" width="7.84" height="4.97"/>
          </g>
          <g>
            <rect class="cls-48" x="380" y="114" width="7.84" height="4.97"/>
            <rect class="cls-11" x="380" y="121.45" width="7.84" height="4.97"/>
            <rect class="cls-18" x="380" y="128.91" width="7.84" height="4.97"/>
          </g>
          <g>
            <rect class="cls-78" x="370.24" y="91.64" width="7.84" height="4.97"/>
            <rect class="cls-26" x="370.24" y="99.1" width="7.84" height="4.97"/>
            <rect class="cls-50" x="370.24" y="106.55" width="7.84" height="4.97"/>
            <rect class="cls-66" x="370.24" y="114" width="7.84" height="4.97"/>
            <rect class="cls-77" x="370.24" y="121.45" width="7.84" height="4.97"/>
            <rect class="cls-63" x="370.24" y="128.91" width="7.84" height="4.97"/>
          </g>
          <g>
            <rect class="cls-52" x="360.47" y="121.45" width="7.84" height="4.97"/>
            <rect class="cls-86" x="360.47" y="128.91" width="7.84" height="4.97"/>
          </g>
          <g>
            <rect class="cls-72" x="350.72" y="106.55" width="7.84" height="4.97"/>
            <rect class="cls-23" x="350.72" y="114" width="7.84" height="4.97"/>
            <rect class="cls-75" x="350.72" y="121.45" width="7.84" height="4.97"/>
            <rect class="cls-76" x="350.72" y="128.91" width="7.84" height="4.97"/>
          </g>
        </g>
        <path class="cls-49" d="m420.97,103.96v-.85c0-1.38-.45-2.66-1.2-3.71-.95-11.2-5.95-21.27-13.52-28.73l1.15-1.15c-8.57-8.43-20.31-13.65-33.25-13.65s-24.69,5.22-33.25,13.65l1.15,1.15c-7.58,7.46-12.57,17.52-13.52,28.72-.75,1.05-1.2,2.33-1.2,3.71v.85c-5.87,0-8.36,6.69-8.36,14.93s2.49,14.93,8.36,14.93v.85c0,3.52,2.88,6.41,6.41,6.41h1.13c3.53,0,6.41-2.88,6.41-6.41v-31.56c0-3.53-2.88-6.41-6.41-6.41h-1.13c-.82,0-1.61.16-2.33.45,1.37-9.58,5.9-18.15,12.49-24.63l1.15,1.15c7.5-7.37,17.78-11.93,29.1-11.93s21.6,4.56,29.1,11.93l1.15-1.15c6.59,6.48,11.12,15.05,12.49,24.63-.73-.29-1.51-.45-2.33-.45h-1.13c-3.53,0-6.41,2.88-6.41,6.41v31.56c0,3.52,2.88,6.41,6.41,6.41h1.13c3.53,0,6.41-2.88,6.41-6.41v-.85c5.87,0,8.36-6.69,8.36-14.93s-2.49-14.93-8.36-14.93Z"/>
      </g>
      <g>
        <text class="cls-2" transform="translate(329.85 193.55) scale(.9 1)"><tspan class="cls-62" x="0" y="0">T</tspan><tspan class="cls-44" x="7.4" y="0">A</tspan><tspan class="cls-15" x="16.37" y="0">GLINE HERE</tspan></text>
        <text class="cls-3" transform="translate(272.07 176.49) scale(1.15 1)"><tspan x="0" y="0">BEST SOUND</tspan></text>
      </g>
    </g>
    <g>
      <g>
        <g>
          <path class="cls-34" d="m371.87,310.42c-23.29,0-42.17,18.88-42.17,42.17s18.88,42.17,42.17,42.17v-29.12c-7.21,0-13.05-5.84-13.05-13.05s5.84-13.05,13.05-13.05v-29.12Zm-34.38,24.06l21.01,11.71v.02c-.28.61-.55,1.24-.76,1.9h0l-22.91-7.29c.7-2.2,1.6-4.32,2.66-6.33Zm13.79-14.84l12.91,20.27v.03c-1.98,1.2-3.65,2.84-4.87,4.8h-.02s-19.89-13.5-19.89-13.5c3.08-4.66,7.13-8.62,11.87-11.6Z"/>
          <path class="cls-73" d="m389.02,311.63c-9.09-6.61-13.45-12.4-13.45-12.4v46.69c-1.08-.65-2.34-1.03-3.7-1.03-3.99,0-7.23,3.24-7.23,7.23s3.24,7.23,7.23,7.23,7.23-3.24,7.23-7.23v-34.71c10.74,4.96,16.12,16.12,16.12,16.12,2.07-7.44,2.89-15.29-6.2-21.9Z"/>
        </g>
        <g>
          <path class="cls-58" d="m395.9,395.51c0,1.82-1.47,3.3-3.27,3.3s-3.27-1.49-3.27-3.31l.04-50.35c0-1.82,1.47-3.3,3.27-3.3,1.8,0,3.27,1.49,3.27,3.31l-.04,50.34Z"/>
          <path class="cls-32" d="m384.55,391.04c0,1.82-1.47,3.3-3.27,3.3-1.8,0-3.27-1.49-3.27-3.31l.02-23.96c0-1.82,1.47-3.31,3.27-3.31,1.8,0,3.27,1.49,3.26,3.31l-.02,23.96Z"/>
          <path class="cls-25" d="m407.25,382.29c0,1.82-1.47,3.3-3.27,3.3-1.8,0-3.27-1.49-3.27-3.31v-20.65c.01-1.82,1.49-3.31,3.28-3.3,1.8,0,3.27,1.49,3.26,3.31v20.65Z"/>
          <path class="cls-47" d="m418.61,374.77c0,1.82-1.47,3.3-3.27,3.3-1.8,0-3.27-1.49-3.27-3.31v-6.82c0-1.82,1.48-3.3,3.28-3.3,1.8,0,3.27,1.49,3.26,3.31v6.82Z"/>
        </g>
      </g>
      <g>
        <text class="cls-61" transform="translate(330.36 448.18) scale(.9 1)"><tspan class="cls-62" x="0" y="0">T</tspan><tspan class="cls-44" x="7.4" y="0">A</tspan><tspan class="cls-15" x="16.37" y="0">GLINE HERE</tspan></text>
        <text class="cls-14" transform="translate(316.12 431.13) scale(.9 1)"><tspan class="cls-6" x="0" y="0">DJ</tspan><tspan class="cls-20" x="28.52" y="0"> </tspan><tspan class="cls-6" x="34.22" y="0">TECHNO</tspan></text>
      </g>
    </g>
    <g>
      <g>
        <text class="cls-61" transform="translate(79.54 193.55) scale(.9 1)"><tspan class="cls-62" x="0" y="0">T</tspan><tspan class="cls-44" x="7.4" y="0">A</tspan><tspan class="cls-15" x="16.37" y="0">GLINE HERE</tspan></text>
        <text class="cls-13" transform="translate(63.81 176.49) scale(.9 1)"><tspan x="0" y="0">MUSIC MIX</tspan></text>
      </g>
      <g>
        <path class="cls-74" d="m121.01,77.25c-18.47,0-33.45,14.98-33.45,33.45s14.97,33.44,33.45,33.44,33.44-14.97,33.45-33.44c0-18.47-14.97-33.45-33.45-33.45Zm-14.79,58.83c-4.11-2.4-7.58-5.77-10.11-9.79l9.96-6.24c1.52,2.42,3.6,4.43,6.06,5.88l-5.92,10.15Zm14.79-11.84c-7.48,0-13.55-6.06-13.55-13.55,0-7.48,6.07-13.54,13.55-13.54s13.54,6.06,13.54,13.54-6.06,13.54-13.54,13.54Zm15.14-22.56c-1.53-2.56-3.68-4.7-6.26-6.2l5.92-10.15c4.29,2.51,7.89,6.07,10.44,10.34l-10.1,6.02Z"/>
        <path class="cls-38" d="m121.01,105.89c-2.66,0-4.81,2.15-4.81,4.81s2.15,4.81,4.81,4.81,4.81-2.15,4.81-4.81-2.15-4.81-4.81-4.81Z"/>
        <path class="cls-21" d="m198.21,115.82h-8.67c-.58,0-1.08.38-1.25.93l-1.21,4.04-3.21-13.5c-.14-.59-.66-1-1.27-1h-.01c-.61,0-1.13.43-1.26,1.03l-2.38,11.11h-4.1c-.27-8.37-1.63-16.88-1.63-16.88l-5.67-1.74c-4.58-21.24-24.54-38.49-46.64-38.49s-42.1,17.28-46.65,38.55l-5.47,1.68s-1.58,9.92-1.67,18.88h-2.96l-3.5-11.89c-.16-.53-.64-.91-1.19-.93-.6-.03-1.07.31-1.27.82l-3.71,9.4h-6.05c-.72,0-1.3.58-1.3,1.3s.58,1.3,1.3,1.3h6.94c.53,0,1.01-.33,1.21-.82l2.64-6.7,2.7,9.19c.16.55.67.93,1.25.93h3.95c.1,3.87.56,7.33,1.65,9.42,0,0,13.48,3.36,19.62,2.71,0,0-13.39-12.97-7.8-37.14,4.8-17.76,21.03-30.84,40.31-30.84,23.06,0,41.76,18.7,41.76,41.76h.09c.21,17.13-9.16,26.22-9.16,26.22,6.14.65,19.61-2.71,19.61-2.71,1.28-2.44,1.69-6.77,1.68-11.42h5.11c.61,0,1.14-.43,1.27-1.03l1.4-6.52,3,12.61c.14.57.64.98,1.23,1,.01,0,.02,0,.04,0,.57,0,1.08-.38,1.25-.93l2.32-7.74h7.7c.72,0,1.3-.58,1.3-1.3s-.58-1.3-1.3-1.3Z"/>
      </g>
    </g>
    <g>
      <g>
        <g>
          <g>
            <polyline class="cls-9" points="613.13 98.33 613.13 93.36 620.97 93.36 620.97 98.33"/>
            <rect class="cls-67" x="613.13" y="100.81" width="7.84" height="4.97"/>
            <rect class="cls-12" x="613.13" y="108.26" width="7.84" height="4.97"/>
            <rect class="cls-81" x="613.13" y="115.71" width="7.84" height="4.97"/>
          </g>
          <g>
            <rect class="cls-55" x="603.37" y="100.81" width="7.84" height="4.97"/>
            <rect class="cls-84" x="603.37" y="108.26" width="7.84" height="4.97"/>
            <rect class="cls-83" x="603.37" y="115.71" width="7.84" height="4.97"/>
          </g>
          <g>
            <rect class="cls-33" x="593.61" y="78.45" width="7.84" height="4.97"/>
            <rect class="cls-46" x="593.61" y="85.91" width="7.84" height="4.97"/>
            <rect class="cls-37" x="593.61" y="93.36" width="7.84" height="4.97"/>
            <rect class="cls-5" x="593.61" y="100.81" width="7.84" height="4.97"/>
            <rect class="cls-22" x="593.61" y="108.26" width="7.84" height="4.97"/>
            <rect class="cls-28" x="593.61" y="115.71" width="7.84" height="4.97"/>
          </g>
          <g>
            <rect class="cls-54" x="583.85" y="108.26" width="7.84" height="4.97"/>
            <rect class="cls-56" x="583.85" y="115.71" width="7.84" height="4.97"/>
          </g>
          <g>
            <rect class="cls-19" x="574.09" y="93.36" width="7.84" height="4.97"/>
            <rect class="cls-82" x="574.09" y="100.81" width="7.84" height="4.97"/>
            <rect class="cls-17" x="574.09" y="108.26" width="7.84" height="4.97"/>
            <rect class="cls-41" x="574.09" y="115.71" width="7.84" height="4.97"/>
          </g>
        </g>
        <path class="cls-30" d="m644.35,90.77v-.85c0-1.38-.45-2.66-1.2-3.71-.95-11.2-5.95-21.27-13.52-28.73l1.15-1.15c-8.57-8.43-20.31-13.65-33.25-13.65s-24.69,5.22-33.25,13.65l1.15,1.15c-7.58,7.46-12.57,17.52-13.52,28.72-.75,1.05-1.2,2.33-1.2,3.71v.85c-5.87,0-8.36,6.69-8.36,14.93s2.49,14.93,8.36,14.93v.85c0,3.52,2.88,6.41,6.41,6.41h1.13c3.53,0,6.41-2.88,6.41-6.41v-31.56c0-3.53-2.88-6.41-6.41-6.41h-1.13c-.82,0-1.61.16-2.33.45,1.37-9.58,5.9-18.15,12.49-24.63l1.15,1.15c7.5-7.37,17.78-11.93,29.1-11.93s21.6,4.56,29.1,11.93l1.15-1.15c6.59,6.48,11.12,15.05,12.49,24.63-.73-.29-1.51-.45-2.33-.45h-1.13c-3.53,0-6.41,2.88-6.41,6.41v31.56c0,3.52,2.88,6.41,6.41,6.41h1.13c3.53,0,6.41-2.88,6.41-6.41v-.85c5.87,0,8.36-6.69,8.36-14.93s-2.49-14.93-8.36-14.93Z"/>
      </g>
      <g>
        <text class="cls-2" transform="translate(751.37 124.24) scale(.9 1)"><tspan class="cls-39" x="0" y="0">M</tspan><tspan class="cls-70" x="10.86" y="0">usic </tspan><tspan class="cls-29" x="45.43" y="0">R</tspan><tspan class="cls-70" x="53.91" y="0">epo</tspan></text>
        <text class="cls-1" transform="translate(662.01 107.18) scale(1.15 1)"><tspan class="cls-7" x="0" y="0">A</tspan><tspan class="cls-59" x="19.47" y="0">w</tspan><tspan class="cls-64" x="42.74" y="0">esome </tspan><tspan class="cls-68" x="143.97" y="0">B</tspan><tspan class="cls-35" x="162.17" y="0">e</tspan><tspan class="cls-10" x="179.11" y="0">a</tspan><tspan class="cls-64" x="195.39" y="0">ts</tspan></text>
      </g>
    </g>
  </g>
</svg>